<svg xmlns="http://www.w3.org/2000/svg" width="512" height="512" viewBox="0 0 512 512">
  <rect width="512" height="512" rx="112" fill="#16a374"/>
  <g fill="none" stroke="#fff" stroke-width="22" stroke-linecap="round" stroke-linejoin="round">
    <path d="M104 320V184a40 40 0 0 1 40-40h208l72 76v100a14 14 0 0 1-14 14h-26"/>
    <path d="M104 320a14 14 0 0 0 14 14h22"/>
    <path d="M158 144v80M222 144v80M286 144v80M352 144l52 52M120 224h288"/>
    <circle cx="176" cy="346" r="34" fill="#0d1117"/>
    <circle cx="352" cy="346" r="34" fill="#0d1117"/>
    <path d="M210 346h108"/>
  </g>
</svg>
